<svg width="35" height="32" viewBox="0 0 35 32" fill="none" xmlns="http://www.w3.org/2000/svg">
<path d="M33.7533 0.00142696C33.4462 0.0163927 33.1566 0.147553 32.9454 0.367142C28.6932 4.7312 19.6713 14.2741 15.0359 19.0548L9.14491 13.9471C8.908 13.7389 8.5959 13.632 8.27827 13.6499C7.96062 13.6676 7.66323 13.8088 7.45182 14.042C7.24042 14.2752 7.13251 14.5816 7.15165 14.8932C7.17079 15.2048 7.3156 15.4959 7.55418 15.7025L14.3151 21.5539C14.5454 21.7553 14.8461 21.8614 15.154 21.85C15.4622 21.8385 15.7541 21.7106 15.9679 21.4929C20.4063 16.9384 30.2605 6.50351 34.6601 1.98815H34.6604C34.8846 1.76284 35.0069 1.45835 34.9997 1.14352C34.9922 0.828695 34.856 0.530188 34.6213 0.315197C34.3869 0.100233 34.0737 -0.0129647 33.753 0.00118329L33.7533 0.00142696ZM15.745 0.025645C13.9881 0.0844206 12.2259 0.423195 10.5376 1.04958C2.12965 4.16902 -2.1258 13.417 1.05514 21.6641C4.23544 29.9111 13.6638 34.0851 22.0718 30.9651C30.4797 27.8456 34.7352 18.5976 31.5542 10.3506C31.3897 9.97751 31.0405 9.71439 30.6304 9.65479C30.2204 9.59547 29.8085 9.74812 29.541 10.0586C29.2736 10.3691 29.189 10.793 29.3171 11.1797C32.0413 18.2439 28.428 26.0988 21.2259 28.7702C14.0239 31.4417 6.01579 27.8981 3.29221 20.8339C0.568636 13.7697 4.18137 5.91481 11.3834 3.24335C15.7783 1.61289 20.7118 2.25829 24.5077 4.97454L24.5074 4.97427C24.7618 5.17427 25.0884 5.26352 25.4115 5.22135C25.7347 5.17917 26.026 5.0091 26.2179 4.7506C26.4099 4.49237 26.4859 4.16828 26.4279 3.85345C26.3702 3.53889 26.1838 3.26107 25.9117 3.08475C23.1339 1.09728 19.8326 0.0629685 16.491 0.0248645C16.2405 0.0210549 15.9964 0.016701 15.7453 0.0248645L15.745 0.025645Z" fill="url(#paint0_linear_71_121)"/>
<defs>
<linearGradient id="paint0_linear_71_121" x1="17.5" y1="0" x2="17.5" y2="32" gradientUnits="userSpaceOnUse">
<stop stop-color="#FFD439"/>
<stop offset="1" stop-color="#FFAC2F"/>
</linearGradient>
</defs>
</svg>
