<svg width="38" height="38" viewBox="0 0 38 38" fill="none" xmlns="http://www.w3.org/2000/svg">
<path d="M32.4328 32.4382C39.8557 25.0167 39.8557 12.9876 32.4328 5.56612C25.0099 -1.85537 12.9908 -1.85537 5.56717 5.56612C-1.85572 12.9999 -1.85572 25.0167 5.56717 32.4382C12.9785 39.8482 25.0092 39.8597 32.4328 32.4382ZM9.84324 19.4005C10.3063 18.9375 11.0666 18.9375 11.5297 19.4005L15.4015 23.2598L26.471 12.2163C26.9459 11.7651 27.6943 11.7651 28.1574 12.2281C28.6205 12.6911 28.6205 13.4394 28.1574 13.9024L16.2327 25.7772C16.0071 26.0146 15.6984 26.1216 15.4015 26.1216C15.0928 26.1216 14.7959 26.0149 14.5582 25.7772L9.84324 21.0867C9.38016 20.6232 9.38016 19.8633 9.84324 19.4003V19.4005Z" fill="url(#paint0_linear_71_95)"/>
<defs>
<linearGradient id="paint0_linear_71_95" x1="19" y1="0" x2="19" y2="38" gradientUnits="userSpaceOnUse">
<stop stop-color="#FFD439"/>
<stop offset="1" stop-color="#FFAC2F"/>
</linearGradient>
</defs>
</svg>
