<svg width="30" height="30" viewBox="0 0 30 30" fill="none" xmlns="http://www.w3.org/2000/svg">
<path d="M19.468 0H10.532C7.73978 0.00284947 5.06239 1.11332 3.08771 3.08771C1.11303 5.0621 0.00284494 7.73956 0 10.532V19.468C0.00284947 22.2602 1.11332 24.9376 3.08771 26.9123C5.0621 28.887 7.73956 29.9972 10.532 30H19.468C22.2602 29.9972 24.9376 28.8867 26.9123 26.9123C28.887 24.9379 29.9972 22.2604 30 19.468V10.532C29.9971 7.73978 28.8867 5.0624 26.9123 3.08771C24.9379 1.11303 22.2604 0.00284494 19.468 0ZM15 21.9827C13.1481 21.9827 11.372 21.2469 10.0623 19.9373C8.75265 18.6277 8.01698 16.8515 8.01698 14.9996C8.01698 13.1477 8.75272 11.3717 10.0623 10.062C11.372 8.75229 13.1481 8.01661 15 8.01661C16.8519 8.01661 18.628 8.75236 19.9377 10.062C21.2473 11.3716 21.983 13.1477 21.983 14.9996C21.9805 16.851 21.2438 18.6253 19.9348 19.9344C18.6258 21.2434 16.8513 21.98 15.0001 21.9826L15 21.9827ZM23.955 8.34225C23.8972 8.40209 23.833 8.45566 23.7635 8.50182C23.6926 8.54628 23.6176 8.58474 23.5401 8.61666C23.4646 8.64971 23.3854 8.67336 23.3039 8.68675C23.2224 8.70471 23.1386 8.71325 23.0551 8.7124C22.8867 8.7104 22.7203 8.67792 22.5636 8.61666C22.4881 8.58474 22.4154 8.54627 22.3465 8.50182C22.2764 8.45395 22.2102 8.40067 22.1487 8.34225C21.9111 8.10033 21.778 7.77492 21.7786 7.43581C21.7774 7.35204 21.786 7.26854 21.8039 7.18676C21.8176 7.10555 21.8412 7.02633 21.8743 6.95082C21.9062 6.87303 21.9447 6.79837 21.9891 6.72742C22.0373 6.65931 22.0906 6.59548 22.1487 6.53593C22.2103 6.47723 22.2764 6.42394 22.3465 6.37636C22.4154 6.33162 22.4881 6.29315 22.5636 6.26124C22.6422 6.22904 22.7234 6.20339 22.8061 6.18487C23.2235 6.10337 23.6544 6.23502 23.955 6.53593C24.0151 6.59378 24.0684 6.65789 24.1146 6.72742C24.1613 6.79837 24.2018 6.87303 24.236 6.95082C24.2659 7.02719 24.2895 7.1064 24.3061 7.18676C24.3209 7.26911 24.3294 7.35231 24.3317 7.43581C24.3326 7.77633 24.1969 8.10259 23.955 8.34225H23.955ZM15 9.93141C13.6559 9.93141 12.3667 10.4654 11.4165 11.416C10.4659 12.3663 9.93184 13.6554 9.93184 14.9996C9.93184 16.3437 10.4658 17.6328 11.4165 18.5831C12.3667 19.5337 13.6559 20.0677 15 20.0677C16.3441 20.0677 17.6333 19.5337 18.5835 18.5831C19.5341 17.6328 20.0682 16.3437 20.0682 14.9996C20.067 13.6557 19.5327 12.3675 18.5824 11.4172C17.6321 10.4669 16.3438 9.93257 15.0001 9.93148L15 9.93141ZM14.3808 13.2314C14.0141 13.3596 13.6961 13.5987 13.4706 13.9153C13.2455 14.2321 13.1241 14.6108 13.1233 14.9995C13.1233 15.5284 12.6947 15.9569 12.1659 15.9569C11.6373 15.9569 11.2084 15.5284 11.2084 14.9995C11.2093 14.2138 11.454 13.4479 11.9091 12.8076C12.3645 12.1671 13.0073 11.6841 13.7491 11.4251C14.2469 11.2535 14.79 11.5165 14.9638 12.0138C15.1376 12.511 14.8772 13.0552 14.3808 13.2313L14.3808 13.2314Z" fill="url(#paint0_linear_71_200)"/>
<defs>
<linearGradient id="paint0_linear_71_200" x1="15" y1="0" x2="15" y2="30" gradientUnits="userSpaceOnUse">
<stop stop-color="#FFD439"/>
<stop offset="1" stop-color="#FFAC2F"/>
</linearGradient>
</defs>
</svg>
