<svg width="30" height="24" viewBox="0 0 30 24" fill="none" xmlns="http://www.w3.org/2000/svg">
<path d="M13.2927 13.4545L0.487793 1.33333C0.975598 0.484848 1.95121 0 3.04877 0H26.8293C27.9268 0 28.7805 0.484848 29.3902 1.33333L16.5854 13.4545H13.2927Z" fill="url(#paint0_linear_71_187)"/>
<path d="M30 4.24219V20.9694C30 22.6664 28.6585 23.9997 26.9512 23.9997H3.04878C1.34146 23.9997 0 22.6664 0 20.9694V4.24219L11.9512 15.6361C12.1951 15.8785 12.439 15.9997 12.8049 15.9997H17.1951C17.561 15.9997 17.8049 15.8785 18.0488 15.6361L30 4.24219Z" fill="url(#paint1_linear_71_187)"/>
<defs>
<linearGradient id="paint0_linear_71_187" x1="14.939" y1="0" x2="14.939" y2="13.4545" gradientUnits="userSpaceOnUse">
<stop stop-color="#FFD439"/>
<stop offset="1" stop-color="#FFAC2F"/>
</linearGradient>
<linearGradient id="paint1_linear_71_187" x1="15" y1="4.24219" x2="15" y2="23.9997" gradientUnits="userSpaceOnUse">
<stop stop-color="#FFD439"/>
<stop offset="1" stop-color="#FFAC2F"/>
</linearGradient>
</defs>
</svg>
